# Blender 5.0.1
# www.blender.org
mtllib Car_body.mtl
o Cube
v -0.415804 0.113316 0.061370
v -0.479921 0.583554 0.039462
v -0.415804 0.122835 -0.785362
v -0.479921 0.497166 -0.726712
v 0.000000 0.113316 0.061370
v 0.000000 0.555198 0.040783
v 0.000000 0.122835 -0.785362
v 0.000000 0.456766 -0.724830
v -0.415804 0.378041 0.013916
v -0.415804 0.310773 -0.718028
v 0.000000 0.310773 -0.718028
v 0.000000 0.322430 -0.056264
v 0.000000 0.484367 0.942649
v 0.000000 0.153965 0.933838
v -0.330332 0.151642 0.883979
v -0.415804 0.445341 0.894500
v -0.407087 0.465409 0.943191
v -0.407087 0.415524 0.945515
v -0.384828 0.408469 -0.018892
v -0.384828 0.358584 -0.016568
v -0.457025 0.465409 0.943191
v -0.457025 0.415524 0.945515
v -0.434766 0.408469 -0.018892
v -0.434766 0.358584 -0.016568
v -0.433447 0.440008 0.915964
v -0.435710 0.473673 0.916152
v -0.430421 0.440449 0.882457
v -0.432685 0.474114 0.882645
v 0.000000 0.444955 0.961254
v 0.000000 0.478620 0.961441
v 0.000000 0.445395 0.927747
v 0.000000 0.479061 0.927934
v -0.383177 0.168270 0.437942
v -0.380974 0.118390 0.438595
v -0.398585 0.136483 -0.325049
v -0.396381 0.086603 -0.324396
v -0.433027 0.166109 0.439326
v -0.430823 0.116229 0.439979
v -0.448434 0.134322 -0.323665
v -0.446230 0.084442 -0.323012
v -0.461080 0.099207 -0.771863
v -0.464922 0.140973 -0.773791
v -0.462038 0.096849 -0.808725
v -0.465879 0.138835 -0.810663
v 0.000000 0.131682 -0.779992
v 0.000000 0.170057 -0.781762
v 0.000000 0.129074 -0.816841
v 0.000000 0.167928 -0.818634
v -0.349616 0.135572 0.910615
v -0.350219 0.169072 0.914029
v -0.345067 0.139053 0.877464
v -0.345670 0.172552 0.880878
v 0.000000 0.127731 0.961379
v 0.000000 0.161230 0.964794
v 0.000000 0.131211 0.928228
v 0.000000 0.164710 0.931643
v 0.000000 0.502605 0.937833
v 0.000000 0.477135 0.943802
v -0.032050 0.372041 -0.069949
v -0.031796 0.346572 -0.063981
v -0.035876 0.502645 0.939775
v -0.035622 0.477176 0.945744
v -0.057967 0.372082 -0.068007
v -0.057713 0.346612 -0.062038
v -0.123929 0.165206 0.967099
v -0.135337 0.152768 0.930795
v -0.018263 0.465114 0.971295
v -0.029671 0.452676 0.934991
v -0.164396 0.153893 0.963984
v -0.175804 0.141455 0.927679
v -0.058729 0.453802 0.968181
v -0.070137 0.441363 0.931876
v -0.233257 0.159749 0.949203
v -0.244665 0.147311 0.912899
v -0.127590 0.459658 0.953400
v -0.138998 0.447219 0.917095
v -0.273723 0.148437 0.946088
v -0.285131 0.135998 0.909784
v -0.168057 0.448345 0.950285
v -0.179465 0.435906 0.913980
v -0.313176 0.162294 0.940266
v -0.323123 0.147173 0.904556
v -0.253241 0.474535 0.933834
v -0.263188 0.459414 0.898124
v -0.351550 0.145016 0.938237
v -0.361497 0.129894 0.902527
v -0.291615 0.457257 0.931806
v -0.301563 0.442135 0.896095
v 0.415804 0.113316 0.061370
v 0.479921 0.583554 0.039462
v 0.415804 0.122835 -0.785362
v 0.479921 0.497166 -0.726712
v 0.415804 0.378041 0.013916
v 0.415804 0.310773 -0.718028
v 0.330332 0.151642 0.883979
v 0.415804 0.445341 0.894500
v 0.407087 0.465409 0.943191
v 0.407087 0.415524 0.945515
v 0.384828 0.408469 -0.018892
v 0.384828 0.358584 -0.016568
v 0.457025 0.465409 0.943191
v 0.457025 0.415524 0.945515
v 0.434766 0.408469 -0.018892
v 0.434766 0.358584 -0.016568
v 0.433447 0.440008 0.915964
v 0.435710 0.473673 0.916152
v 0.430421 0.440449 0.882457
v 0.432685 0.474114 0.882645
v 0.383177 0.168270 0.437942
v 0.380974 0.118390 0.438595
v 0.398585 0.136483 -0.325049
v 0.396381 0.086603 -0.324396
v 0.433027 0.166109 0.439326
v 0.430823 0.116229 0.439979
v 0.448434 0.134322 -0.323665
v 0.446230 0.084442 -0.323012
v 0.461080 0.099207 -0.771863
v 0.464922 0.140973 -0.773791
v 0.462038 0.096849 -0.808725
v 0.465879 0.138835 -0.810663
v 0.349616 0.135572 0.910615
v 0.350219 0.169072 0.914029
v 0.345067 0.139053 0.877464
v 0.345670 0.172552 0.880878
v 0.032050 0.372041 -0.069949
v 0.031796 0.346572 -0.063981
v 0.035876 0.502645 0.939775
v 0.035622 0.477176 0.945744
v 0.057967 0.372082 -0.068007
v 0.057713 0.346612 -0.062038
v 0.123929 0.165206 0.967099
v 0.135337 0.152768 0.930795
v 0.018263 0.465114 0.971295
v 0.029671 0.452676 0.934991
v 0.164396 0.153893 0.963984
v 0.175804 0.141455 0.927679
v 0.058729 0.453802 0.968181
v 0.070137 0.441363 0.931876
v 0.233257 0.159749 0.949203
v 0.244665 0.147311 0.912899
v 0.127590 0.459658 0.953400
v 0.138998 0.447219 0.917095
v 0.273723 0.148437 0.946088
v 0.285131 0.135998 0.909784
v 0.168057 0.448345 0.950285
v 0.179465 0.435906 0.913980
v 0.313176 0.162294 0.940266
v 0.323123 0.147173 0.904556
v 0.253241 0.474535 0.933834
v 0.263188 0.459414 0.898124
v 0.351550 0.145016 0.938237
v 0.361497 0.129894 0.902527
v 0.291615 0.457257 0.931806
v 0.301563 0.442135 0.896095
vn -0.6812 -0.7313 0.0335
vn -0.6456 0.4751 0.5979
vn -0.5618 -0.4724 -0.6791
vn -0.6613 0.4588 -0.5935
vn 0.3085 -0.9511 0.0168
vn -0.0000 0.6358 0.7719
vn -0.0000 -0.5710 -0.8209
vn -0.0000 0.6247 -0.7809
vn -0.9243 0.0858 0.3718
vn -0.7203 -0.0074 -0.6936
vn -0.0000 0.1482 -0.9890
vn 0.3670 0.6093 0.7029
vn 0.3465 0.6816 0.6444
vn 0.3480 -0.6331 0.6914
vn -0.5298 -0.6207 0.5779
vn -0.6470 0.5674 0.5094
vn 0.5694 0.6089 0.5523
vn 0.5707 -0.5466 0.6128
vn 0.5853 0.5449 -0.6005
vn 0.5839 -0.6059 -0.5404
vn -0.5839 0.6059 0.5404
vn -0.5853 -0.5449 0.6005
vn -0.5707 0.5466 -0.6128
vn -0.5694 -0.6089 -0.5523
vn -0.6063 -0.6047 0.5165
vn -0.6531 0.5504 0.5201
vn -0.4930 -0.5908 -0.6386
vn -0.5439 0.5611 -0.6240
vn 0.3420 -0.6479 0.6806
vn 0.3462 0.6375 0.6883
vn 0.3242 -0.6823 -0.6553
vn 0.3245 0.7011 -0.6349
vn 0.5631 0.6188 0.5477
vn 0.6171 -0.5348 0.5772
vn 0.5391 0.5847 -0.6063
vn 0.5872 -0.5680 -0.5766
vn -0.5872 0.5680 0.5766
vn -0.5391 -0.5847 0.6063
vn -0.6171 0.5348 -0.5772
vn -0.5631 -0.6188 -0.5477
vn -0.5160 -0.5876 0.6232
vn -0.6088 0.5628 0.5592
vn -0.5400 -0.6525 -0.5316
vn -0.6331 0.5004 -0.5906
vn 0.3276 -0.6158 0.7166
vn 0.3376 0.7142 0.6132
vn 0.3265 -0.6874 -0.6487
vn 0.3417 0.6396 -0.6886
vn -0.6489 -0.6280 0.4297
vn -0.6557 0.5219 0.5456
vn -0.4863 -0.5085 -0.7106
vn -0.4944 0.6386 -0.5897
vn 0.3496 -0.7029 0.6195
vn 0.3485 0.5567 0.7541
vn 0.3219 -0.6341 -0.7030
vn 0.3202 0.7635 -0.5608
vn -0.0000 0.8377 0.5462
vn -0.0000 -0.5848 0.8112
vn 0.5379 0.4622 -0.7051
vn 0.5571 -0.6681 -0.4933
vn -0.5669 0.6655 0.4854
vn -0.5455 -0.4660 0.6966
vn -0.6029 0.4699 -0.6448
vn -0.6028 -0.6706 -0.4324
vn 0.5862 -0.5061 0.6327
vn 0.5056 -0.6656 -0.5489
vn 0.6509 0.6304 0.4230
vn 0.5473 0.4704 -0.6922
vn -0.5473 -0.4704 0.6922
vn -0.6509 -0.6304 -0.4230
vn -0.5056 0.6656 0.5489
vn -0.5862 0.5061 -0.6327
vn 0.6639 -0.3935 0.6359
vn 0.5911 -0.6002 -0.5389
vn 0.5558 0.7329 0.3924
vn 0.4613 0.5244 -0.7157
vn -0.4613 -0.5244 0.7157
vn -0.5558 -0.7328 -0.3924
vn -0.5911 0.6002 0.5389
vn -0.6639 0.3935 -0.6359
vn 0.6812 -0.7313 0.0335
vn 0.6456 0.4751 0.5979
vn 0.5618 -0.4724 -0.6791
vn 0.6613 0.4588 -0.5935
vn 0.9243 0.0858 0.3718
vn 0.7203 -0.0074 -0.6936
vn 0.5298 -0.6207 0.5779
vn 0.6470 0.5674 0.5094
vn -0.5694 0.6089 0.5523
vn -0.5707 -0.5466 0.6128
vn -0.5853 0.5449 -0.6005
vn -0.5839 -0.6059 -0.5404
vn 0.5839 0.6059 0.5404
vn 0.5853 -0.5449 0.6005
vn 0.5707 0.5466 -0.6128
vn 0.5694 -0.6089 -0.5523
vn 0.6063 -0.6047 0.5165
vn 0.6531 0.5504 0.5201
vn 0.4930 -0.5908 -0.6386
vn 0.5439 0.5611 -0.6240
vn -0.5631 0.6188 0.5477
vn -0.6171 -0.5348 0.5772
vn -0.5391 0.5847 -0.6063
vn -0.5872 -0.5680 -0.5766
vn 0.5872 0.5680 0.5766
vn 0.5391 -0.5847 0.6063
vn 0.6171 0.5348 -0.5772
vn 0.5631 -0.6188 -0.5477
vn 0.5160 -0.5876 0.6232
vn 0.6088 0.5628 0.5592
vn 0.5400 -0.6525 -0.5316
vn 0.6331 0.5004 -0.5906
vn 0.6489 -0.6280 0.4297
vn 0.6557 0.5219 0.5456
vn 0.4863 -0.5085 -0.7106
vn 0.4944 0.6386 -0.5897
vn -0.5379 0.4622 -0.7051
vn -0.5571 -0.6681 -0.4933
vn 0.5669 0.6655 0.4854
vn 0.5455 -0.4660 0.6966
vn 0.6029 0.4699 -0.6448
vn 0.6028 -0.6706 -0.4324
vn -0.5862 -0.5061 0.6327
vn -0.5056 -0.6656 -0.5489
vn -0.6509 0.6304 0.4230
vn -0.5473 0.4704 -0.6922
vn 0.5473 -0.4704 0.6922
vn 0.6509 -0.6304 -0.4230
vn 0.5056 0.6656 0.5489
vn 0.5862 0.5061 -0.6327
vn -0.6639 -0.3935 0.6359
vn -0.5911 -0.6002 -0.5389
vn -0.5558 0.7329 0.3924
vn -0.4613 0.5244 -0.7157
vn 0.4613 -0.5244 0.7157
vn 0.5558 -0.7328 -0.3924
vn 0.5911 0.6002 0.5389
vn 0.6639 0.3935 -0.6359
vt 0.524990 0.000000
vt 0.625000 0.000000
vt 0.625000 0.250000
vt 0.524990 0.250000
vt 0.625000 0.500000
vt 0.524990 0.500000
vt 0.524990 0.750000
vt 0.625000 0.750000
vt 0.625000 1.000000
vt 0.524990 1.000000
vt 0.125000 0.500000
vt 0.375000 0.500000
vt 0.375000 0.750000
vt 0.125000 0.750000
vt 0.875000 0.500000
vt 0.875000 0.750000
vt 0.000000 0.000000
vt 0.375000 0.250000
vt 0.375000 0.000000
vt 0.375000 1.000000
s 1
usemtl Material.003
f 9/1/9 2/2/2 4/3/4 10/4/10
f 10/4/10 4/3/4 8/5/8 11/6/11
f 3/11/3 7/12/7 5/13/5 1/14/1
f 5/17/5 12/17/12 13/17/13 14/17/14
f 3/18/3 10/4/10 11/6/11 7/12/7
f 1/19/1 9/1/9 10/4/10 3/18/3
f 14/13/14 13/7/13 16/10/16 15/20/15
f 12/7/12 9/10/9 16/10/16 13/7/13
f 9/1/9 1/19/1 15/19/15 16/1/16
f 1/14/1 5/13/5 14/13/14 15/14/15
f 93/1/85 94/4/86 92/3/84 90/2/82
f 94/4/86 11/6/11 8/5/8 92/3/84
f 91/11/83 89/14/81 5/13/5 7/12/7
f 91/18/83 7/12/7 11/6/11 94/4/86
f 89/19/81 91/18/83 94/4/86 93/1/85
f 14/13/14 95/20/87 96/10/88 13/7/13
f 12/7/12 13/7/13 96/10/88 93/10/85
f 93/1/85 96/1/88 95/19/87 89/19/81
f 89/14/81 95/14/87 14/13/14 5/13/5
usemtl Material.005
f 8/5/8 4/15/4 2/16/2 6/8/6
f 17/19/17 18/2/18 20/3/20 19/18/19
f 19/18/19 20/3/20 24/5/24 23/12/23
f 23/12/23 24/5/24 22/8/22 21/13/21
f 21/13/21 22/8/22 18/9/18 17/20/17
f 19/11/19 23/12/23 21/13/21 17/14/17
f 24/5/24 20/15/20 18/16/18 22/8/22
f 25/19/25 26/2/26 28/3/28 27/18/27
f 27/18/27 28/3/28 32/5/32 31/12/31
f 31/12/31 32/5/32 30/8/30 29/13/29
f 29/13/29 30/8/30 26/9/26 25/20/25
f 27/11/27 31/12/31 29/13/29 25/14/25
f 32/5/32 28/15/28 26/16/26 30/8/30
f 33/19/33 34/2/34 36/3/36 35/18/35
f 35/18/35 36/3/36 40/5/40 39/12/39
f 39/12/39 40/5/40 38/8/38 37/13/37
f 37/13/37 38/8/38 34/9/34 33/20/33
f 35/11/35 39/12/39 37/13/37 33/14/33
f 40/5/40 36/15/36 34/16/34 38/8/38
f 41/19/41 42/2/42 44/3/44 43/18/43
f 43/18/43 44/3/44 48/5/48 47/12/47
f 47/12/47 48/5/48 46/8/46 45/13/45
f 45/13/45 46/8/46 42/9/42 41/20/41
f 43/11/43 47/12/47 45/13/45 41/14/41
f 48/5/48 44/15/44 42/16/42 46/8/46
f 49/19/49 50/2/50 52/3/52 51/18/51
f 51/18/51 52/3/52 56/5/56 55/12/55
f 55/12/55 56/5/56 54/8/54 53/13/53
f 53/13/53 54/8/54 50/9/50 49/20/49
f 51/11/51 55/12/55 53/13/53 49/14/49
f 56/5/56 52/15/52 50/16/50 54/8/54
f 57/19/57 58/2/58 60/3/60 59/18/59
f 59/18/59 60/3/60 64/5/64 63/12/63
f 63/12/63 64/5/64 62/8/62 61/13/61
f 61/13/61 62/8/62 58/9/58 57/20/57
f 59/11/59 63/12/63 61/13/61 57/14/57
f 64/5/64 60/15/60 58/16/58 62/8/62
f 65/19/65 66/2/66 68/3/68 67/18/67
f 67/18/67 68/3/68 72/5/72 71/12/71
f 71/12/71 72/5/72 70/8/70 69/13/69
f 69/13/69 70/8/70 66/9/66 65/20/65
f 67/11/67 71/12/71 69/13/69 65/14/65
f 72/5/72 68/15/68 66/16/66 70/8/70
f 73/19/65 74/2/66 76/3/68 75/18/67
f 75/18/67 76/3/68 80/5/72 79/12/71
f 79/12/71 80/5/72 78/8/70 77/13/69
f 77/13/69 78/8/70 74/9/66 73/20/65
f 75/11/67 79/12/71 77/13/69 73/14/65
f 80/5/72 76/15/68 74/16/66 78/8/70
f 81/19/73 82/2/74 84/3/76 83/18/75
f 83/18/75 84/3/76 88/5/80 87/12/79
f 87/12/79 88/5/80 86/8/78 85/13/77
f 85/13/77 86/8/78 82/9/74 81/20/73
f 83/11/75 87/12/79 85/13/77 81/14/73
f 88/5/80 84/15/76 82/16/74 86/8/78
f 8/5/8 6/8/6 90/16/82 92/15/84
f 97/19/89 99/18/91 100/3/92 98/2/90
f 99/18/91 103/12/95 104/5/96 100/3/92
f 103/12/95 101/13/93 102/8/94 104/5/96
f 101/13/93 97/20/89 98/9/90 102/8/94
f 99/11/91 97/14/89 101/13/93 103/12/95
f 104/5/96 102/8/94 98/16/90 100/15/92
f 105/19/97 107/18/99 108/3/100 106/2/98
f 107/18/99 31/12/31 32/5/32 108/3/100
f 29/13/29 105/20/97 106/9/98 30/8/30
f 107/11/99 105/14/97 29/13/29 31/12/31
f 32/5/32 30/8/30 106/16/98 108/15/100
f 109/19/101 111/18/103 112/3/104 110/2/102
f 111/18/103 115/12/107 116/5/108 112/3/104
f 115/12/107 113/13/105 114/8/106 116/5/108
f 113/13/105 109/20/101 110/9/102 114/8/106
f 111/11/103 109/14/101 113/13/105 115/12/107
f 116/5/108 114/8/106 110/16/102 112/15/104
f 117/19/109 119/18/111 120/3/112 118/2/110
f 119/18/111 47/12/47 48/5/48 120/3/112
f 45/13/45 117/20/109 118/9/110 46/8/46
f 119/11/111 117/14/109 45/13/45 47/12/47
f 48/5/48 46/8/46 118/16/110 120/15/112
f 121/19/113 123/18/115 124/3/116 122/2/114
f 123/18/115 55/12/55 56/5/56 124/3/116
f 53/13/53 121/20/113 122/9/114 54/8/54
f 123/11/115 121/14/113 53/13/53 55/12/55
f 56/5/56 54/8/54 122/16/114 124/15/116
f 57/19/57 125/18/117 126/3/118 58/2/58
f 125/18/117 129/12/121 130/5/122 126/3/118
f 129/12/121 127/13/119 128/8/120 130/5/122
f 127/13/119 57/20/57 58/9/58 128/8/120
f 125/11/117 57/14/57 127/13/119 129/12/121
f 130/5/122 128/8/120 58/16/58 126/15/118
f 131/19/123 133/18/125 134/3/126 132/2/124
f 133/18/125 137/12/129 138/5/130 134/3/126
f 137/12/129 135/13/127 136/8/128 138/5/130
f 135/13/127 131/20/123 132/9/124 136/8/128
f 133/11/125 131/14/123 135/13/127 137/12/129
f 138/5/130 136/8/128 132/16/124 134/15/126
f 139/19/123 141/18/125 142/3/126 140/2/124
f 141/18/125 145/12/129 146/5/130 142/3/126
f 145/12/129 143/13/127 144/8/128 146/5/130
f 143/13/127 139/20/123 140/9/124 144/8/128
f 141/11/125 139/14/123 143/13/127 145/12/129
f 146/5/130 144/8/128 140/16/124 142/15/126
f 147/19/131 149/18/133 150/3/134 148/2/132
f 149/18/133 153/12/137 154/5/138 150/3/134
f 153/12/137 151/13/135 152/8/136 154/5/138
f 151/13/135 147/20/131 148/9/132 152/8/136
f 149/11/133 147/14/131 151/13/135 153/12/137
f 154/5/138 152/8/136 148/16/132 150/15/134
usemtl Material.006
f 12/7/12 6/8/6 2/9/2 9/10/9
f 12/7/12 93/10/85 90/9/82 6/8/6
