{
	"asset":{
		"generator":"Khronos glTF Blender I/O v5.0.21",
		"version":"2.0"
	},
	"scene":0,
	"scenes":[
		{
			"name":"Scene",
			"nodes":[
				0,
				1,
				2
			]
		}
	],
	"nodes":[
		{
			"mesh":0,
			"name":"Street with curb"
		},
		{
			"mesh":1,
			"name":"Street",
			"translation":[
				-2.0745487213134766,
				0,
				0
			]
		},
		{
			"mesh":2,
			"name":"Street with curb.001",
			"translation":[
				0,
				0,
				-2.062075614929199
			]
		}
	],
	"materials":[
		{
			"doubleSided":true,
			"name":"Material.001",
			"pbrMetallicRoughness":{
				"baseColorTexture":{
					"index":0
				},
				"metallicRoughnessTexture":{
					"index":1
				}
			}
		},
		{
			"doubleSided":true,
			"name":"Street_Material",
			"pbrMetallicRoughness":{
				"baseColorTexture":{
					"index":2
				},
				"metallicRoughnessTexture":{
					"index":3
				}
			}
		},
		{
			"doubleSided":true,
			"name":"Street w Curb",
			"pbrMetallicRoughness":{
				"baseColorTexture":{
					"index":4
				},
				"metallicRoughnessTexture":{
					"index":5
				}
			}
		}
	],
	"meshes":[
		{
			"name":"Plane",
			"primitives":[
				{
					"attributes":{
						"POSITION":0,
						"NORMAL":1,
						"TEXCOORD_0":2
					},
					"indices":3,
					"material":0
				}
			]
		},
		{
			"name":"Plane.001",
			"primitives":[
				{
					"attributes":{
						"POSITION":4,
						"NORMAL":5,
						"TEXCOORD_0":6
					},
					"indices":7,
					"material":1
				}
			]
		},
		{
			"name":"Plane.002",
			"primitives":[
				{
					"attributes":{
						"POSITION":8,
						"NORMAL":9,
						"TEXCOORD_0":10
					},
					"indices":11,
					"material":2
				}
			]
		}
	],
	"textures":[
		{
			"sampler":0,
			"source":0
		},
		{
			"sampler":0,
			"source":1
		},
		{
			"sampler":0,
			"source":2
		},
		{
			"sampler":0,
			"source":3
		},
		{
			"sampler":0,
			"source":4
		},
		{
			"sampler":0,
			"source":5
		}
	],
	"images":[
		{
			"mimeType":"image/png",
			"name":"Artboard 1",
			"uri":"Artboard%201.png"
		},
		{
			"mimeType":"image/png",
			"name":"Artboard 1_Metal",
			"uri":"Artboard%201_Metal.png"
		},
		{
			"mimeType":"image/png",
			"name":"Artboard 1 copy 2",
			"uri":"Artboard%201%20copy%202.png"
		},
		{
			"mimeType":"image/jpeg",
			"name":"Artboard 1 copy 2_Metal",
			"uri":"Artboard%201%20copy%202_Metal.jpg"
		},
		{
			"mimeType":"image/png",
			"name":"Artboard 1 copy",
			"uri":"Artboard%201%20copy.png"
		},
		{
			"mimeType":"image/jpeg",
			"name":"Artboard 1 copy_Metal",
			"uri":"Artboard%201%20copy_Metal.jpg"
		}
	],
	"accessors":[
		{
			"bufferView":0,
			"componentType":5126,
			"count":12,
			"max":[
				0.9778525233268738,
				0.07224397361278534,
				1
			],
			"min":[
				-1,
				0,
				-1
			],
			"type":"VEC3"
		},
		{
			"bufferView":1,
			"componentType":5126,
			"count":12,
			"type":"VEC3"
		},
		{
			"bufferView":2,
			"componentType":5126,
			"count":12,
			"type":"VEC2"
		},
		{
			"bufferView":3,
			"componentType":5123,
			"count":18,
			"type":"SCALAR"
		},
		{
			"bufferView":4,
			"componentType":5126,
			"count":4,
			"max":[
				1,
				0,
				1
			],
			"min":[
				-1,
				0,
				-1
			],
			"type":"VEC3"
		},
		{
			"bufferView":5,
			"componentType":5126,
			"count":4,
			"type":"VEC3"
		},
		{
			"bufferView":6,
			"componentType":5126,
			"count":4,
			"type":"VEC2"
		},
		{
			"bufferView":7,
			"componentType":5123,
			"count":6,
			"type":"SCALAR"
		},
		{
			"bufferView":8,
			"componentType":5126,
			"count":56,
			"max":[
				0.9778525233268738,
				0.07224397361278534,
				1
			],
			"min":[
				-1,
				0,
				-0.9866478443145752
			],
			"type":"VEC3"
		},
		{
			"bufferView":9,
			"componentType":5126,
			"count":56,
			"type":"VEC3"
		},
		{
			"bufferView":10,
			"componentType":5126,
			"count":56,
			"type":"VEC2"
		},
		{
			"bufferView":11,
			"componentType":5123,
			"count":114,
			"type":"SCALAR"
		}
	],
	"bufferViews":[
		{
			"buffer":0,
			"byteLength":144,
			"byteOffset":0,
			"target":34962
		},
		{
			"buffer":0,
			"byteLength":144,
			"byteOffset":144,
			"target":34962
		},
		{
			"buffer":0,
			"byteLength":96,
			"byteOffset":288,
			"target":34962
		},
		{
			"buffer":0,
			"byteLength":36,
			"byteOffset":384,
			"target":34963
		},
		{
			"buffer":0,
			"byteLength":48,
			"byteOffset":420,
			"target":34962
		},
		{
			"buffer":0,
			"byteLength":48,
			"byteOffset":468,
			"target":34962
		},
		{
			"buffer":0,
			"byteLength":32,
			"byteOffset":516,
			"target":34962
		},
		{
			"buffer":0,
			"byteLength":12,
			"byteOffset":548,
			"target":34963
		},
		{
			"buffer":0,
			"byteLength":672,
			"byteOffset":560,
			"target":34962
		},
		{
			"buffer":0,
			"byteLength":672,
			"byteOffset":1232,
			"target":34962
		},
		{
			"buffer":0,
			"byteLength":448,
			"byteOffset":1904,
			"target":34962
		},
		{
			"buffer":0,
			"byteLength":228,
			"byteOffset":2352,
			"target":34963
		}
	],
	"samplers":[
		{
			"magFilter":9729,
			"minFilter":9987
		}
	],
	"buffers":[
		{
			"byteLength":2580,
			"uri":"Fluffy%203d%20assets.bin"
		}
	]
}
