# Blender 5.0.1
# www.blender.org
mtllib Street_curb.mtl
o Street_with_curb
v -1.000000 0.000000 1.000000
v 0.977853 0.072244 1.000000
v -1.000000 0.000000 -1.000000
v 0.977853 0.072244 -1.000000
v 0.658416 0.000000 1.000000
v 0.658416 0.000000 -1.000000
v 0.658701 0.072244 1.000000
v 0.658701 0.072244 -1.000000
vn -0.0000 1.0000 -0.0000
vn -1.0000 0.0039 -0.0000
vt 0.840424 0.000000
vt 1.000000 0.000000
vt 1.000000 1.000000
vt 0.840424 1.000000
vt 0.000000 0.000000
vt 0.829208 0.000000
vt 0.829208 1.000000
vt 0.000000 1.000000
s 0
usemtl Material.001
f 7/1/1 2/2/1 4/3/1 8/4/1
f 1/5/1 5/6/1 6/7/1 3/8/1
f 5/6/2 7/1/2 8/4/2 6/7/2
