# Blender 5.0.1
# www.blender.org
mtllib Street_curb_intersection_wall_extension.mtl
o Plane.003
v 2.981849 2.069594 -1.036341
v 0.981849 2.069594 -1.036341
v 2.981849 4.069594 -1.036341
v 0.981849 4.069594 -1.036341
v 0.977853 0.072244 -1.551911
v 0.977852 0.000039 -1.551894
v 0.658468 0.000014 -1.229557
v 0.977852 0.000039 -1.551894
v 0.666480 0.000016 -1.301286
v 0.690104 0.000018 -1.369417
v 0.728156 0.000022 -1.430534
v 0.778727 0.000026 -1.481574
v 0.839283 0.000030 -1.519975
v 0.906786 0.000035 -1.543814
v 0.977853 0.072244 -1.551911
v 0.658701 0.072244 -1.229566
v 0.906835 0.072244 -1.543829
v 0.839378 0.072244 -1.519989
v 0.778865 0.072244 -1.481585
v 0.728330 0.072244 -1.430545
v 0.690307 0.072244 -1.369426
v 0.666703 0.072244 -1.301294
v 0.658701 0.072244 -1.053757
v 0.977853 0.072244 -1.053757
v -1.000000 0.000014 -1.053757
v 0.658458 0.000011 -1.053757
v 0.977852 0.000039 -2.069965
v -1.000000 0.000033 -2.069965
v 0.977853 0.072244 -2.572240
v 0.977852 0.000039 -2.572257
v 0.658468 0.000014 -2.894594
v 0.977852 0.000039 -2.572257
v 0.666480 0.000016 -2.822866
v 0.690104 0.000018 -2.754735
v 0.728156 0.000022 -2.693617
v 0.778727 0.000026 -2.642578
v 0.839283 0.000030 -2.604176
v 0.906786 0.000035 -2.580337
v 0.977853 0.072244 -2.572240
v 0.658701 0.072244 -2.894586
v 0.906835 0.072244 -2.580322
v 0.839378 0.072244 -2.604163
v 0.778865 0.072244 -2.642566
v 0.728330 0.072244 -2.693607
v 0.690307 0.072244 -2.754725
v 0.666703 0.072244 -2.822857
v 0.658701 0.072244 -3.070395
v 0.977853 0.072244 -3.070395
v -1.000000 0.000014 -3.070395
v 0.658458 0.000011 -3.070395
v 0.977852 0.000039 -2.054186
v -1.000000 0.000033 -2.054186
v 2.983068 0.072244 -3.072140
v 0.983068 0.072244 -3.072140
v 2.983068 -0.000000 -2.575746
v 0.983068 -0.000000 -2.575746
v 2.983068 0.072244 -2.576030
v 0.983068 0.072244 -2.576030
v 0.983068 -0.000000 -2.054727
v 2.983068 -0.000000 -2.054727
v 2.983068 0.072244 -2.790201
v 0.983068 0.072244 -2.790201
v 2.983068 0.072244 -1.037314
v 0.983068 0.072244 -1.037314
v 2.983068 -0.000000 -1.533708
v 0.983068 -0.000000 -1.533708
v 2.983068 0.072244 -1.533424
v 0.983068 0.072244 -1.533424
v 2.983068 0.072244 -1.319253
v 0.983068 0.072244 -1.319253
v 2.981849 0.067440 -1.036341
v 0.981849 0.067439 -1.036341
v 2.981849 2.067440 -1.036341
v 0.981849 2.067439 -1.036341
v 2.981849 0.067439 -3.067485
v 0.981849 0.067439 -3.067485
v 2.981849 2.067439 -3.067485
v 0.981849 2.067439 -3.067485
v 2.992932 0.072244 -1.047077
v 4.992932 0.072244 -1.047077
v 2.992932 0.000000 -1.543471
v 4.992932 -0.000000 -1.543471
v 2.992932 0.072244 -1.543186
v 4.992932 0.072244 -1.543186
v 4.992932 -0.000000 -2.064490
v 2.992932 0.000000 -2.064490
v 2.992932 0.072244 -1.329016
v 4.992932 0.072244 -1.329016
v 2.992932 0.072244 -3.081903
v 4.992932 0.072244 -3.081903
v 2.992932 0.000000 -2.585509
v 4.992932 -0.000000 -2.585509
v 2.992932 0.072244 -2.585793
v 4.992932 0.072244 -2.585793
v 2.992932 0.072244 -2.799964
v 4.992932 0.072244 -2.799964
v 2.994150 0.067439 -3.082876
v 4.994150 0.067439 -3.082877
v 2.994151 2.067440 -3.082876
v 4.994151 2.067439 -3.082877
v 2.994150 0.067439 -1.051731
v 4.994150 0.067439 -1.051732
v 2.994151 2.067439 -1.051731
v 4.994151 2.067439 -1.051732
v 2.994150 2.069594 -3.082876
v 4.994151 2.069594 -3.082877
v 2.994151 4.069594 -3.082876
v 4.994151 4.069594 -3.082877
vn -0.0000 -0.0000 -1.0000
vn -0.1130 -0.0002 -0.9936
vn -0.3331 0.0001 -0.9429
vn -0.5357 0.0007 -0.8444
vn -0.7105 0.0014 -0.7037
vn -0.8490 0.0021 -0.5284
vn -0.9449 0.0027 -0.3275
vn -0.9938 0.0031 -0.1109
vn -0.0000 1.0000 -0.0000
vn -1.0000 0.0033 -0.0000
vn -0.1130 -0.0002 0.9936
vn -0.3331 0.0001 0.9429
vn -0.5357 0.0007 0.8444
vn -0.7105 0.0014 0.7037
vn -0.8490 0.0021 0.5284
vn -0.9449 0.0027 0.3275
vn -0.9938 0.0031 0.1109
vn -0.0000 0.0039 1.0000
vn -0.0000 0.0039 -1.0000
vn -0.0000 -0.0000 1.0000
vt 0.000000 0.000000
vt 1.000000 0.000000
vt 1.000000 1.000000
vt 0.000000 1.000000
vt 1.000000 0.595149
vt 1.000000 0.601817
vt 0.964491 0.601817
vt 0.964491 0.593802
vt 0.930762 0.601818
vt 0.930763 0.589829
vt 0.840424 0.601784
vt 0.860451 0.583428
vt 0.829236 0.577569
vt 0.829234 0.534466
vt 0.852054 0.534467
vt 0.834491 0.503906
vt 0.845703 0.503907
vt 0.830546 0.469840
vt 0.841761 0.469841
vt 0.829208 0.433976
vt 0.840424 0.433977
vt 1.000000 0.601817
vt 0.000000 0.348398
vt 0.829208 0.346075
vt 0.829208 0.579191
vt 0.829208 0.591112
vt 1.000000 0.839416
vt 0.000000 0.838337
vt 0.840424 0.346072
vt 1.000000 0.346072
vt 0.920212 0.000000
vt 0.920212 1.000000
vt 0.547065 0.000000
vt 0.829208 0.000000
vt 0.829208 1.000000
vt 0.547065 1.000000
vt 0.840424 0.000000
vt 0.840424 1.000000
s 0
usemtl Material.002
f 1/1/1 2/2/1 4/3/1 3/4/1
f 75/1/1 76/2/1 78/3/1 77/4/1
f 101/1/20 102/2/20 104/3/20 103/4/20
f 105/1/20 106/2/20 108/3/20 107/4/20
usemtl Street_w_Curb
f 15/5/2 8/6/2 14/7/2 17/8/2
f 17/8/3 14/7/3 13/9/3 18/10/3
f 18/10/4 13/9/4 12/11/4 19/12/4
f 19/12/5 12/13/5 11/14/5 20/15/5
f 20/15/6 11/14/6 10/16/6 21/17/6
f 21/17/7 10/16/7 9/18/7 22/19/7
f 22/19/8 9/18/8 7/20/8 16/21/8
f 15/5/1 5/5/1 6/22/1 8/6/1
f 25/23/9 26/24/9 7/20/9 9/18/9 10/16/9 11/14/9 12/13/9 13/25/9 14/26/9 8/6/9 6/22/9 27/27/9 28/28/9
f 23/29/9 24/30/9 5/5/9 15/5/9 17/8/9 18/10/9 19/12/9 20/15/9 21/17/9 22/19/9 16/21/9
f 26/24/10 23/29/10 16/21/10 7/20/10
f 39/5/11 41/8/11 38/7/11 32/6/11
f 41/8/12 42/10/12 37/9/12 38/7/12
f 42/10/13 43/12/13 36/11/13 37/9/13
f 43/12/14 44/15/14 35/14/14 36/13/14
f 44/15/15 45/17/15 34/16/15 35/14/15
f 45/17/16 46/19/16 33/18/16 34/16/16
f 46/19/17 40/21/17 31/20/17 33/18/17
f 39/5/1 32/6/1 30/22/1 29/5/1
f 49/23/9 52/28/9 51/27/9 30/22/9 32/6/9 38/26/9 37/25/9 36/13/9 35/14/9 34/16/9 33/18/9 31/20/9 50/24/9
f 47/29/9 40/21/9 46/19/9 45/17/9 44/15/9 43/12/9 42/10/9 41/8/9 39/5/9 29/5/9 48/30/9
f 50/24/10 31/20/10 40/21/10 47/29/10
usemtl Material.001
f 61/31/9 53/2/9 54/3/9 62/32/9
f 60/33/9 55/34/9 56/35/9 59/36/9
f 55/34/18 57/37/18 58/38/18 56/35/18
f 57/37/9 61/31/9 62/32/9 58/38/9
f 69/31/9 70/32/9 64/3/9 63/2/9
f 60/33/9 59/36/9 66/35/9 65/34/9
f 65/34/19 66/35/19 68/38/19 67/37/19
f 67/37/9 68/38/9 70/32/9 69/31/9
f 87/31/9 79/2/9 80/3/9 88/32/9
f 86/33/9 81/34/9 82/35/9 85/36/9
f 81/34/19 83/37/19 84/38/19 82/35/19
f 83/37/9 87/31/9 88/32/9 84/38/9
f 95/31/9 96/32/9 90/3/9 89/2/9
f 86/33/9 85/36/9 92/35/9 91/34/9
f 91/34/18 92/35/18 94/38/18 93/37/18
f 93/37/9 94/38/9 96/32/9 95/31/9
usemtl Material
f 71/1/1 72/2/1 74/3/1 73/4/1
f 97/1/20 98/2/20 100/3/20 99/4/20
